<?xml version="1.0" encoding="UTF-8"?>
<!DOCTYPE svg PUBLIC "-//W3C//DTD SVG 1.1//EN" "http://www.w3.org/Graphics/SVG/1.1/DTD/svg11.dtd">
<!-- Creator: CorelDRAW 2018 (64 Bit) -->
<svg xmlns="http://www.w3.org/2000/svg" xml:space="preserve" width="7.29mm" height="8.0174mm" version="1.1" style="shape-rendering:geometricPrecision; text-rendering:geometricPrecision; image-rendering:optimizeQuality; fill-rule:evenodd; clip-rule:evenodd"
viewBox="0 0 17.78 19.55"
 xmlns:xlink="http://www.w3.org/1999/xlink">
 <defs>
  <style type="text/css">
   <![CDATA[
    .fil0 {fill:#D2D3D5}
   ]]>
  </style>
 </defs>
 <g id="Camada_x0020_1">
  <metadata id="CorelCorpID_0Corel-Layer"/>
  <g id="_2263245392928">
   <path class="fil0" d="M10.12 14.3l-0.96 4.38 -3.73 0.79c-2.21,0.47 -3.61,-1.05 -3.1,-3.37l0.52 -2.37 4.18 -0.88 -0.14 0.63c-0.19,0.87 0.33,1.44 1.16,1.26l2.06 -0.43z"/>
   <path class="fil0" d="M9.75 0.79l3.73 -0.79 -0.96 4.38 -2.06 0.43c-0.83,0.17 -1.66,1.03 -1.85,1.9l-0.14 0.63 -4.18 0.88 0.52 -2.37c0.51,-2.32 2.73,-4.6 4.95,-5.06z"/>
   <polygon class="fil0" points="0.96,9.41 11.8,7.15 10.83,11.51 0,13.75 "/>
   <path class="fil0" d="M13.69 1.1l1.98 -0.42c1.45,-0.31 2.37,0.69 2.04,2.22l-0.59 2.69 -2.75 0.58 0.34 -1.54c0.13,-0.57 -0.22,-0.95 -0.76,-0.83l-0.89 0.19 0.63 -2.88z"/>
   <path class="fil0" d="M15.67 11.28l-0.59 2.69c-0.33,1.53 -1.8,3.02 -3.25,3.33l-1.98 0.42 0.63 -2.88 0.89 -0.19c0.55,-0.12 1.09,-0.68 1.22,-1.25l0.34 -1.54 2.75 -0.58z"/>
  </g>
 </g>
</svg>
