<?xml version="1.0" encoding="UTF-8"?>
<!DOCTYPE svg PUBLIC "-//W3C//DTD SVG 1.1//EN" "http://www.w3.org/Graphics/SVG/1.1/DTD/svg11.dtd">
<!-- Creator: CorelDRAW 2018 (64 Bit) -->
<svg xmlns="http://www.w3.org/2000/svg" xml:space="preserve" width="37.7102mm" height="7.41mm" version="1.1" style="shape-rendering:geometricPrecision; text-rendering:geometricPrecision; image-rendering:optimizeQuality; fill-rule:evenodd; clip-rule:evenodd"
viewBox="0 0 722.49 141.97"
 xmlns:xlink="http://www.w3.org/1999/xlink">
 <defs>
  <style type="text/css">
   <![CDATA[
    .fil0 {fill:#373435}
    .fil1 {fill:#373435;fill-rule:nonzero}
   ]]>
  </style>
 </defs>
 <g id="Camada_x0020_1">
  <metadata id="CorelCorpID_0Corel-Layer"/>
  <g id="_1968353618144">
   <g>
    <path class="fil0" d="M73.51 103.83l-6.98 31.82 -27.06 5.7c-16.06,3.39 -26.18,-7.62 -22.49,-24.47l3.78 -17.23 30.35 -6.4 -1 4.56c-1.38,6.31 2.41,10.44 8.43,9.17l14.97 -3.16z"/>
    <path class="fil0" d="M70.8 5.7l27.06 -5.7 -6.98 31.82 -14.97 3.16c-6.02,1.27 -12.08,7.47 -13.46,13.78l-1 4.55 -30.35 6.4 3.78 -17.23c3.69,-16.84 19.86,-33.39 35.92,-36.78z"/>
    <polygon class="fil0" points="6.98,68.33 85.68,51.91 78.68,83.57 -0,99.85 "/>
    <path class="fil0" d="M99.4 7.96l14.39 -3.03c10.57,-2.23 17.22,5.02 14.79,16.09l-4.28 19.52 -19.97 4.21 2.45 -11.18c0.91,-4.15 -1.58,-6.87 -5.54,-6.03l-6.43 1.36 4.59 -20.93z"/>
    <path class="fil0" d="M113.8 81.89l-4.28 19.52c-2.43,11.08 -13.06,21.96 -23.63,24.19l-14.39 3.03 4.59 -20.93 6.44 -1.35c3.96,-0.84 7.94,-4.91 8.86,-9.07l2.45 -11.18 19.97 -4.21z"/>
   </g>
   <g>
    <polygon class="fil1" points="241.93,90.41 224.22,90.41 224.22,98.58 240.65,98.58 240.65,107.11 224.22,107.11 224.22,125.87 214.2,125.87 214.2,81.89 241.93,81.89 "/>
    <path id="1" class="fil1" d="M274.83 102.88l-0.83 0c-0.4,-0.16 -1.04,-0.28 -1.93,-0.36 -0.88,-0.08 -1.62,-0.12 -2.2,-0.12 -1.33,0 -2.51,0.1 -3.53,0.29 -1.02,0.2 -2.12,0.53 -3.3,1.01l0 22.17 -9.39 0 0 -33.15 9.39 0 0 4.87c2.06,-2.01 3.85,-3.34 5.38,-4 1.52,-0.66 2.92,-0.99 4.21,-0.99 0.33,0 0.7,0.01 1.11,0.03 0.42,0.02 0.78,0.05 1.09,0.09l0 10.16z"/>
    <path id="2" class="fil1" d="M315.4 109.3c0,5.45 -1.4,9.75 -4.21,12.89 -2.81,3.14 -6.74,4.71 -11.82,4.71 -5.08,0 -9.01,-1.57 -11.82,-4.71 -2.8,-3.14 -4.2,-7.43 -4.2,-12.89 0,-5.49 1.41,-9.79 4.23,-12.93 2.83,-3.12 6.76,-4.69 11.8,-4.69 5.11,0 9.06,1.57 11.84,4.72 2.79,3.16 4.19,7.45 4.19,12.9zm-11.54 8.04c0.62,-0.85 1.07,-1.86 1.38,-3.05 0.3,-1.19 0.45,-2.83 0.45,-4.93 0,-1.94 -0.16,-3.57 -0.47,-4.88 -0.31,-1.31 -0.75,-2.36 -1.31,-3.15 -0.55,-0.81 -1.23,-1.37 -2.01,-1.71 -0.78,-0.33 -1.63,-0.5 -2.53,-0.5 -0.91,0 -1.71,0.14 -2.42,0.41 -0.7,0.27 -1.38,0.82 -2.02,1.64 -0.58,0.77 -1.04,1.81 -1.38,3.15 -0.34,1.34 -0.51,3.01 -0.51,5.03 0,1.8 0.15,3.37 0.44,4.7 0.29,1.32 0.73,2.38 1.31,3.19 0.56,0.77 1.22,1.32 2,1.67 0.77,0.35 1.65,0.53 2.65,0.53 0.85,0 1.66,-0.16 2.44,-0.48 0.77,-0.32 1.43,-0.87 1.96,-1.63z"/>
    <path id="3" class="fil1" d="M356.73 125.87l-9.39 0 0 -16.43c0,-1.34 -0.06,-2.67 -0.18,-4 -0.12,-1.33 -0.34,-2.31 -0.63,-2.93 -0.35,-0.73 -0.85,-1.26 -1.52,-1.59 -0.67,-0.33 -1.6,-0.5 -2.79,-0.5 -0.85,0 -1.71,0.16 -2.59,0.47 -0.87,0.31 -1.82,0.82 -2.85,1.5l0 23.49 -9.39 0 0 -33.15 9.39 0 0 3.67c1.66,-1.48 3.26,-2.61 4.79,-3.4 1.54,-0.79 3.24,-1.18 5.1,-1.18 3.16,0 5.62,1.04 7.4,3.13 1.77,2.09 2.66,5.2 2.66,9.36l0 21.58z"/>
    <path id="4" class="fil1" d="M389.42 125.58c-1,0.3 -2.08,0.53 -3.21,0.7 -1.13,0.17 -2.52,0.25 -4.15,0.25 -3.65,0 -6.37,-0.84 -8.15,-2.51 -1.79,-1.67 -2.68,-4.54 -2.68,-8.6l0 -15.51 -3.84 0 0 -7.2 3.84 0 0 -9.5 9.39 0 0 9.5 8.8 0 0 7.2 -8.8 0 0 11.78c0,1.17 0.01,2.19 0.03,3.06 0.02,0.87 0.16,1.64 0.42,2.34 0.24,0.69 0.68,1.24 1.29,1.64 0.62,0.4 1.52,0.61 2.7,0.61 0.49,0 1.13,-0.12 1.92,-0.36 0.79,-0.24 1.35,-0.46 1.66,-0.66l0.78 0 0 7.28z"/>
    <polygon id="5" class="fil1" points="418.65,110.56 398.76,110.56 398.76,102.03 418.65,102.03 "/>
    <polygon id="6" class="fil1" points="459.8,125.87 431.75,125.87 431.75,81.89 459.8,81.89 459.8,90.41 441.77,90.41 441.77,97.98 458.52,97.98 458.52,106.51 441.77,106.51 441.77,117.34 459.8,117.34 "/>
    <path id="7" class="fil1" d="M502.29 125.87l-9.39 0 0 -16.43c0,-1.34 -0.06,-2.67 -0.18,-4 -0.12,-1.33 -0.34,-2.31 -0.63,-2.93 -0.34,-0.73 -0.85,-1.26 -1.52,-1.59 -0.67,-0.33 -1.6,-0.5 -2.79,-0.5 -0.85,0 -1.71,0.16 -2.59,0.47 -0.87,0.31 -1.82,0.82 -2.85,1.5l0 23.49 -9.38 0 0 -33.15 9.38 0 0 3.67c1.66,-1.48 3.26,-2.61 4.79,-3.4 1.54,-0.79 3.24,-1.18 5.1,-1.18 3.16,0 5.62,1.04 7.4,3.13 1.77,2.09 2.66,5.2 2.66,9.36l0 21.58z"/>
    <path id="8" class="fil1" d="M544.68 125.87l-9.38 0 0 -3.46c-1.62,1.5 -3.13,2.6 -4.53,3.31 -1.41,0.71 -3.04,1.06 -4.88,1.06 -3.57,0 -6.42,-1.55 -8.55,-4.66 -2.14,-3.12 -3.21,-7.3 -3.21,-12.57 0,-2.81 0.36,-5.3 1.08,-7.48 0.72,-2.18 1.71,-4.04 2.96,-5.59 1.18,-1.47 2.62,-2.62 4.3,-3.44 1.68,-0.82 3.37,-1.22 5.06,-1.22 1.75,0 3.19,0.21 4.31,0.64 1.12,0.42 2.28,0.96 3.46,1.61l0 -14.17 9.38 0 0 45.98zm-9.38 -9.13l0 -16.3c-0.66,-0.31 -1.35,-0.54 -2.08,-0.67 -0.73,-0.14 -1.4,-0.21 -2,-0.21 -2.46,0 -4.31,0.88 -5.54,2.62 -1.23,1.75 -1.85,4.17 -1.85,7.26 0,3.26 0.5,5.63 1.48,7.09 0.99,1.47 2.57,2.21 4.75,2.21 0.85,0 1.75,-0.18 2.7,-0.54 0.96,-0.36 1.8,-0.85 2.53,-1.44z"/>
    <path id="9" class="fil1" d="M616.06 112.95c0,1.93 -0.3,3.73 -0.92,5.41 -0.6,1.68 -1.5,3.11 -2.7,4.27 -1.27,1.24 -2.79,2.21 -4.58,2.88 -1.8,0.67 -4.01,1.02 -6.64,1.02 -1.79,0 -3.48,-0.07 -5.05,-0.22 -1.58,-0.14 -2.97,-0.35 -4.17,-0.64l0 -8.88 0.93 0c0.83,0.35 1.7,0.69 2.59,0.99 0.91,0.31 2.05,0.46 3.46,0.46 1.82,0 3.22,-0.27 4.2,-0.83 0.98,-0.56 1.68,-1.32 2.09,-2.31 0.4,-0.96 0.62,-2.02 0.68,-3.18 0.05,-1.15 0.08,-2.62 0.08,-4.42l0 -17.52 -8.85 0 0 -8.11 18.88 0 0 31.06z"/>
    <path id="10" class="fil1" d="M651.41 102.88l-0.83 0c-0.4,-0.16 -1.04,-0.28 -1.93,-0.36 -0.88,-0.08 -1.62,-0.12 -2.2,-0.12 -1.33,0 -2.51,0.1 -3.53,0.29 -1.02,0.2 -2.12,0.53 -3.3,1.01l0 22.17 -9.39 0 0 -33.15 9.39 0 0 4.87c2.06,-2.01 3.85,-3.34 5.38,-4 1.52,-0.66 2.93,-0.99 4.21,-0.99 0.33,0 0.7,0.01 1.11,0.03 0.42,0.02 0.78,0.05 1.09,0.09l0 10.16z"/>
    <path class="fil1" d="M247.23 44.23c0,4.03 -0.77,7.67 -2.32,10.93 -1.55,3.28 -3.6,5.81 -6.17,7.6 -1.78,1.25 -3.76,2.15 -5.95,2.71 -2.19,0.56 -5.08,0.83 -8.65,0.83l-9.84 0 0 -44.22 9.73 0c3.81,0 6.83,0.31 9.07,0.93 2.24,0.63 4.14,1.48 5.69,2.57 2.66,1.88 4.72,4.38 6.2,7.51 1.48,3.12 2.23,6.84 2.23,11.13zm-5.42 -0.08c0,-3.46 -0.53,-6.37 -1.59,-8.74 -1.06,-2.36 -2.65,-4.23 -4.76,-5.58 -1.54,-0.99 -3.16,-1.67 -4.89,-2.06 -1.72,-0.39 -3.8,-0.58 -6.2,-0.58l-4.86 0 0 34 4.86 0c2.49,0 4.67,-0.2 6.53,-0.62 1.86,-0.42 3.57,-1.19 5.11,-2.31 1.94,-1.4 3.39,-3.25 4.36,-5.54 0.97,-2.29 1.45,-5.15 1.45,-8.58z"/>
    <path id="1" class="fil1" d="M289.37 50.3l-21.56 0c0,2.03 0.27,3.8 0.81,5.31 0.54,1.51 1.28,2.75 2.23,3.71 0.9,0.94 1.98,1.65 3.23,2.13 1.25,0.48 2.63,0.71 4.13,0.71 1.98,0 3.99,-0.45 6.01,-1.35 2.01,-0.9 3.45,-1.79 4.31,-2.67l0.26 0 0 6.09c-1.65,0.79 -3.35,1.45 -5.08,1.99 -1.72,0.54 -3.54,0.8 -5.44,0.8 -4.85,0 -8.63,-1.49 -11.35,-4.46 -2.73,-2.97 -4.08,-7.2 -4.08,-12.67 0,-5.41 1.31,-9.71 3.92,-12.89 2.61,-3.18 6.04,-4.77 10.29,-4.77 3.95,0 6.99,1.31 9.13,3.91 2.14,2.62 3.21,6.31 3.21,11.12l0 3.03zm-4.77 -4.26c-0.02,-2.92 -0.67,-5.18 -1.96,-6.78 -1.28,-1.6 -3.24,-2.4 -5.85,-2.4 -2.65,0 -4.75,0.88 -6.31,2.64 -1.57,1.76 -2.45,3.94 -2.67,6.55l16.79 0z"/>
    <path id="2" class="fil1" d="M327.39 56.68c0,3.02 -1.1,5.51 -3.31,7.44 -2.21,1.94 -5.22,2.91 -9.04,2.91 -2.16,0 -4.15,-0.29 -5.95,-0.87 -1.8,-0.59 -3.32,-1.23 -4.54,-1.93l0 -6.26 0.26 0c1.55,1.34 3.27,2.4 5.17,3.19 1.89,0.79 3.71,1.19 5.44,1.19 2.15,0 3.84,-0.39 5.06,-1.2 1.22,-0.79 1.82,-2.05 1.82,-3.76 0,-1.31 -0.33,-2.29 -0.99,-2.96 -0.66,-0.68 -1.93,-1.25 -3.81,-1.72 -0.7,-0.18 -1.61,-0.39 -2.73,-0.63 -1.13,-0.23 -2.14,-0.49 -3.07,-0.77 -2.56,-0.77 -4.37,-1.9 -5.43,-3.4 -1.07,-1.49 -1.61,-3.33 -1.61,-5.49 0,-1.37 0.25,-2.66 0.75,-3.86 0.49,-1.21 1.25,-2.28 2.27,-3.23 0.97,-0.92 2.22,-1.66 3.74,-2.21 1.51,-0.54 3.2,-0.81 5.07,-0.81 1.75,0 3.52,0.24 5.32,0.73 1.79,0.48 3.28,1.06 4.47,1.76l0 5.96 -0.26 0c-1.26,-1.05 -2.78,-1.95 -4.58,-2.68 -1.8,-0.73 -3.56,-1.1 -5.28,-1.1 -1.79,0 -3.31,0.4 -4.54,1.18 -1.24,0.79 -1.86,1.96 -1.86,3.52 0,1.36 0.38,2.39 1.13,3.08 0.72,0.69 1.91,1.26 3.55,1.69 0.9,0.23 1.91,0.47 3.04,0.71 1.12,0.23 2.05,0.46 2.81,0.65 2.28,0.6 4.03,1.61 5.27,3.05 1.23,1.47 1.85,3.41 1.85,5.82z"/>
    <path id="3" class="fil1" d="M368.6 50.3l-21.55 0c0,2.03 0.27,3.8 0.81,5.31 0.54,1.51 1.28,2.75 2.22,3.71 0.9,0.94 1.98,1.65 3.23,2.13 1.25,0.48 2.63,0.71 4.13,0.71 1.98,0 3.99,-0.45 6.01,-1.35 2.01,-0.9 3.45,-1.79 4.31,-2.67l0.26 0 0 6.09c-1.65,0.79 -3.35,1.45 -5.08,1.99 -1.72,0.54 -3.54,0.8 -5.44,0.8 -4.85,0 -8.63,-1.49 -11.35,-4.46 -2.73,-2.97 -4.08,-7.2 -4.08,-12.67 0,-5.41 1.31,-9.71 3.92,-12.89 2.61,-3.18 6.04,-4.77 10.3,-4.77 3.95,0 6.99,1.31 9.12,3.91 2.14,2.62 3.21,6.31 3.21,11.12l0 3.03zm-4.77 -4.26c-0.02,-2.92 -0.67,-5.18 -1.96,-6.78 -1.28,-1.6 -3.24,-2.4 -5.85,-2.4 -2.65,0 -4.75,0.88 -6.31,2.64 -1.57,1.76 -2.45,3.94 -2.66,6.55l16.78 0z"/>
    <path id="4" class="fil1" d="M410.22 66.3l-4.93 0 0 -18.89c0,-1.52 -0.08,-2.95 -0.23,-4.29 -0.16,-1.34 -0.45,-2.38 -0.87,-3.13 -0.44,-0.83 -1.07,-1.45 -1.89,-1.85 -0.82,-0.41 -1.89,-0.61 -3.2,-0.61 -1.34,0 -2.75,0.38 -4.22,1.13 -1.48,0.75 -2.88,1.71 -4.23,2.88l0 24.77 -4.93 0 0 -33.15 4.93 0 0 3.69c1.54,-1.45 3.13,-2.57 4.77,-3.39 1.65,-0.81 3.33,-1.22 5.07,-1.22 3.16,0 5.58,1.07 7.24,3.23 1.66,2.16 2.49,5.26 2.49,9.32l0 21.51z"/>
    <polygon id="5" class="fil1" points="454.1,33.15 442.27,66.3 437.33,66.3 425.58,33.15 430.89,33.15 439.97,59.53 448.96,33.15 "/>
    <path id="6" class="fil1" d="M494.66 49.73c0,5.4 -1.22,9.66 -3.66,12.79 -2.44,3.12 -5.71,4.68 -9.8,4.68 -4.14,0 -7.42,-1.56 -9.86,-4.68 -2.43,-3.13 -3.65,-7.39 -3.65,-12.79 0,-5.39 1.22,-9.66 3.65,-12.79 2.44,-3.13 5.72,-4.7 9.86,-4.7 4.09,0 7.36,1.57 9.8,4.7 2.44,3.13 3.66,7.4 3.66,12.79zm-5.09 0c0,-4.27 -0.74,-7.44 -2.22,-9.52 -1.48,-2.08 -3.53,-3.11 -6.16,-3.11 -2.66,0 -4.74,1.03 -6.2,3.11 -1.47,2.08 -2.21,5.25 -2.21,9.52 0,4.14 0.74,7.27 2.22,9.41 1.48,2.14 3.55,3.2 6.19,3.2 2.61,0 4.66,-1.05 6.14,-3.17 1.49,-2.12 2.24,-5.26 2.24,-9.44z"/>
    <polygon id="7" class="fil1" points="516.89,66.3 511.96,66.3 511.96,20.07 516.89,20.07 "/>
    <polygon id="8" class="fil1" points="561.65,33.15 549.82,66.3 544.88,66.3 533.12,33.15 538.44,33.15 547.52,59.53 556.5,33.15 "/>
    <path id="9" class="fil1" d="M601.78 50.3l-21.56 0c0,2.03 0.27,3.8 0.81,5.31 0.54,1.51 1.28,2.75 2.23,3.71 0.9,0.94 1.98,1.65 3.23,2.13 1.25,0.48 2.63,0.71 4.13,0.71 1.98,0 3.99,-0.45 6.01,-1.35 2.01,-0.9 3.45,-1.79 4.31,-2.67l0.26 0 0 6.09c-1.65,0.79 -3.35,1.45 -5.08,1.99 -1.73,0.54 -3.54,0.8 -5.44,0.8 -4.84,0 -8.63,-1.49 -11.35,-4.46 -2.73,-2.97 -4.08,-7.2 -4.08,-12.67 0,-5.41 1.3,-9.71 3.91,-12.89 2.61,-3.18 6.04,-4.77 10.3,-4.77 3.95,0 6.99,1.31 9.13,3.91 2.13,2.62 3.21,6.31 3.21,11.12l0 3.03zm-4.77 -4.26c-0.02,-2.92 -0.67,-5.18 -1.96,-6.78 -1.28,-1.6 -3.24,-2.4 -5.85,-2.4 -2.65,0 -4.75,0.88 -6.31,2.64 -1.56,1.76 -2.45,3.94 -2.66,6.55l16.79 0z"/>
    <path id="10" class="fil1" d="M642.65 66.3l-4.93 0 0 -3.48c-1.42,1.38 -2.89,2.46 -4.43,3.23 -1.54,0.77 -3.21,1.16 -5.01,1.16 -3.49,0 -6.27,-1.52 -8.33,-4.57 -2.05,-3.04 -3.08,-7.27 -3.08,-12.66 0,-2.81 0.36,-5.31 1.06,-7.5 0.71,-2.2 1.66,-4.07 2.87,-5.62 1.19,-1.5 2.58,-2.65 4.17,-3.44 1.58,-0.79 3.22,-1.19 4.92,-1.19 1.54,0 2.9,0.18 4.09,0.55 1.19,0.36 2.44,0.93 3.75,1.7l0 -14.42 4.93 0 0 46.23zm-4.93 -8.14l0 -18.98c-1.33,-0.67 -2.52,-1.14 -3.57,-1.39 -1.05,-0.25 -2.2,-0.39 -3.44,-0.39 -2.76,0 -4.91,1.08 -6.45,3.25 -1.54,2.17 -2.31,5.25 -2.31,9.24 0,3.93 0.6,6.91 1.79,8.96 1.19,2.04 3.09,3.06 5.71,3.06 1.4,0 2.82,-0.35 4.26,-1.05 1.43,-0.7 2.77,-1.6 4.01,-2.71z"/>
    <path id="11" class="fil1" d="M686.91 49.73c0,5.4 -1.22,9.66 -3.66,12.79 -2.44,3.12 -5.71,4.68 -9.8,4.68 -4.14,0 -7.42,-1.56 -9.86,-4.68 -2.43,-3.13 -3.65,-7.39 -3.65,-12.79 0,-5.39 1.21,-9.66 3.65,-12.79 2.44,-3.13 5.72,-4.7 9.86,-4.7 4.09,0 7.36,1.57 9.8,4.7 2.44,3.13 3.66,7.4 3.66,12.79zm-5.09 0c0,-4.27 -0.74,-7.44 -2.22,-9.52 -1.48,-2.08 -3.53,-3.11 -6.16,-3.11 -2.66,0 -4.74,1.03 -6.2,3.11 -1.47,2.08 -2.21,5.25 -2.21,9.52 0,4.14 0.74,7.27 2.22,9.41 1.48,2.14 3.55,3.2 6.19,3.2 2.61,0 4.66,-1.05 6.14,-3.17 1.49,-2.12 2.23,-5.26 2.23,-9.44z"/>
    <path id="12" class="fil1" d="M722.49 39.23l-0.26 0c-0.74,-0.19 -1.45,-0.33 -2.14,-0.42 -0.69,-0.09 -1.5,-0.13 -2.45,-0.13 -1.52,0 -2.99,0.39 -4.41,1.15 -1.42,0.76 -2.78,1.75 -4.09,2.95l0 23.52 -4.93 0 0 -33.15 4.93 0 0 4.9c1.96,-1.78 3.68,-3.04 5.18,-3.78 1.49,-0.74 3.02,-1.12 4.58,-1.12 0.86,0 1.48,0.02 1.86,0.07 0.38,0.05 0.96,0.14 1.73,0.28l0 5.73z"/>
   </g>
   <rect class="fil0" x="170.21" y="20.07" width="2.87" height="105.8"/>
  </g>
 </g>
</svg>
