<?xml version="1.0" encoding="UTF-8"?>
<!DOCTYPE svg PUBLIC "-//W3C//DTD SVG 1.1//EN" "http://www.w3.org/Graphics/SVG/1.1/DTD/svg11.dtd">
<!-- Creator: CorelDRAW 2018 (64 Bit) -->
<svg xmlns="http://www.w3.org/2000/svg" xml:space="preserve" width="36.3926mm" height="7.4101mm" version="1.1" style="shape-rendering:geometricPrecision; text-rendering:geometricPrecision; image-rendering:optimizeQuality; fill-rule:evenodd; clip-rule:evenodd"
viewBox="0 0 1215.02 247.4"
 xmlns:xlink="http://www.w3.org/1999/xlink">
 <defs>
  <style type="text/css">
   <![CDATA[
    .fil0 {fill:#EAE6DA}
    .fil1 {fill:#EAE6DA;fill-rule:nonzero}
   ]]>
  </style>
 </defs>
 <g id="Camada_x0020_1">
  <metadata id="CorelCorpID_0Corel-Layer"/>
  <g id="_1576903073504">
   <g>
    <path class="fil0" d="M128.09 180.94l-12.16 55.45 -47.16 9.94c-27.99,5.9 -45.63,-13.28 -39.19,-42.63l6.58 -30.03 52.89 -11.15 -1.74 7.94c-2.41,11 4.2,18.19 14.69,15.98l26.08 -5.5z"/>
    <path class="fil0" d="M123.37 9.94l47.15 -9.94 -12.16 55.45 -26.09 5.5c-10.49,2.21 -21.05,13.02 -23.46,24.02l-1.74 7.94 -52.89 11.15 6.58 -30.03c6.44,-29.35 34.6,-58.19 62.59,-64.09z"/>
    <polygon class="fil0" points="12.16,119.08 149.31,90.47 137.1,145.62 -0,174.01 "/>
    <path class="fil0" d="M173.22 13.88l25.07 -5.29c18.41,-3.88 30.01,8.74 25.78,28.04l-7.46 34.02 -34.79 7.33 4.27 -19.49c1.59,-7.23 -2.76,-11.97 -9.66,-10.51l-11.21 2.36 8 -36.47z"/>
    <path class="fil0" d="M198.3 142.71l-7.46 34.02c-4.23,19.3 -22.76,38.27 -41.17,42.15l-25.07 5.28 8 -36.47 11.21 -2.36c6.9,-1.46 13.84,-8.56 15.43,-15.8l4.27 -19.49 34.79 -7.33z"/>
   </g>
   <polygon class="fil1" points="341.3,170.18 341.3,170.18 341.3,78.36 341.3,78.36 400.82,78.36 400.82,78.36 400.82,86.44 400.82,94.6 400.82,94.6 358.21,94.6 358.21,94.6 358.21,114.04 358.21,114.04 397.78,114.04 397.78,121.93 397.78,129.9 397.78,129.9 358.21,129.9 358.21,129.9 358.21,153.94 358.21,153.94 402.74,153.94 402.74,153.94 402.74,162.02 402.74,170.18 402.74,170.18 "/>
   <polygon id="1" class="fil1" points="425.61,170.18 425.61,170.18 425.61,78.36 425.61,78.36 434.05,78.36 442.52,78.36 442.52,78.36 442.52,153.94 442.52,153.94 482.77,153.94 482.77,153.94 482.77,162.02 482.77,170.18 482.77,170.18 "/>
   <polygon id="2" class="fil1" points="521.07,170.18 521.07,94.6 521.07,94.6 496.61,94.6 496.61,94.6 496.61,86.5 496.61,78.36 496.61,78.36 562.44,78.36 562.44,78.36 562.44,86.44 562.44,94.6 562.44,94.6 537.98,94.6 537.98,94.6 537.98,170.18 537.98,170.18 529.56,170.18 "/>
   <path id="3" class="fil1" d="M616.84 172.74c-11.89,0 -21.34,-4.3 -28.35,-12.94 -7.01,-8.63 -10.52,-20.31 -10.52,-35.02 0,-15 3.51,-26.92 10.52,-35.74 7.01,-8.82 16.46,-13.24 28.35,-13.24 11.95,0 21.44,4.41 28.43,13.24 6.99,8.82 10.48,20.74 10.48,35.74 0,14.71 -3.5,26.39 -10.48,35.02 -6.99,8.63 -16.48,12.94 -28.43,12.94zm0 -16.24c6.89,0 12.29,-2.81 16.18,-8.44 3.89,-5.61 5.82,-13.41 5.82,-23.4 0,-10.21 -1.94,-18.18 -5.82,-23.95 -3.89,-5.78 -9.28,-8.65 -16.18,-8.65 -6.87,0 -12.25,2.88 -16.14,8.65 -3.89,5.78 -5.82,13.75 -5.82,23.95 0,10 1.93,17.8 5.8,23.4 3.87,5.63 9.24,8.44 16.16,8.44z"/>
   <polygon id="4" class="fil1" points="693.38,170.18 693.38,170.18 685.53,170.18 677.6,170.18 677.6,170.18 677.6,78.36 677.6,78.36 686.45,78.36 695.32,78.36 695.32,78.36 727.76,142.84 727.76,142.84 727.76,142.84 727.76,78.36 727.76,78.36 735.64,78.36 743.55,78.36 743.55,78.36 743.55,170.18 735.13,170.18 726.71,170.18 693.38,103.98 693.38,103.98 693.38,103.98 "/>
   <path id="5" class="fil1" d="M868.44 136.42l0 0c-1.39,11.34 -5.22,20.23 -11.48,26.66 -6.26,6.44 -14.17,9.66 -23.73,9.66 -11.16,0 -20.05,-4.37 -26.66,-13.11 -6.63,-8.74 -9.94,-20.5 -9.94,-35.3 0,-14.81 3.44,-26.6 10.31,-35.36 6.9,-8.78 16.14,-13.17 27.73,-13.17 9.13,0 16.65,2.66 22.51,7.99 5.88,5.33 9.41,12.68 10.58,22.06l0 0 -10.6 0 0 0c-1.03,-6.08 -3.52,-10.79 -7.46,-14.09 -3.95,-3.31 -9.02,-4.97 -15.22,-4.97 -8.12,0 -14.56,3.39 -19.37,10.17 -4.81,6.78 -7.21,15.9 -7.21,27.36 0,12.17 2.23,21.46 6.69,27.84 4.45,6.37 10.91,9.57 19.39,9.57 6.26,0 11.46,-2.2 15.61,-6.59 4.14,-4.41 6.9,-10.66 8.25,-18.73l0 0 10.6 0z"/>
   <path id="6" class="fil1" d="M926.04 172.74c-11.76,0 -21.27,-4.45 -28.54,-13.34 -7.27,-8.91 -10.89,-20.59 -10.89,-35.06 0,-14.51 3.63,-26.22 10.89,-35.15 7.27,-8.93 16.78,-13.38 28.54,-13.38 11.82,0 21.35,4.46 28.6,13.38 7.25,8.93 10.88,20.63 10.88,35.15 0,14.47 -3.63,26.15 -10.88,35.06 -7.25,8.89 -16.78,13.34 -28.6,13.34zm0 -11c8.44,0 15.26,-3.43 20.44,-10.32 5.17,-6.88 7.76,-15.92 7.76,-27.09 0,-11.21 -2.59,-20.27 -7.76,-27.17 -5.18,-6.9 -12,-10.36 -20.44,-10.36 -8.41,0 -15.21,3.46 -20.4,10.36 -5.17,6.9 -7.76,15.96 -7.76,27.17 0,11.17 2.59,20.21 7.76,27.09 5.18,6.88 11.99,10.32 20.4,10.32z"/>
   <path id="7" class="fil1" d="M1036.94 104.96l0 0c-0.47,-5.8 -2.48,-10.27 -6.03,-13.42 -3.55,-3.16 -8.32,-4.73 -14.34,-4.73 -6.18,0 -10.86,1.37 -14.07,4.07 -3.19,2.71 -4.79,6.67 -4.79,11.87 0,3.56 1.05,6.2 3.2,7.95 2.12,1.75 6.41,3.5 12.83,5.2l14.11 3.82c7.57,2.05 12.96,5.05 16.19,9.06 3.25,3.97 4.87,9.57 4.87,16.84 0,8.34 -2.78,14.94 -8.34,19.82 -5.56,4.88 -13.09,7.31 -22.6,7.31 -10.56,0 -18.83,-2.81 -24.76,-8.42 -5.81,-5.54 -8.7,-13.13 -8.7,-22.74l0 -0.68 0 0 10.03 0 0 0c0.19,6.65 2.31,11.79 6.41,15.41 4.08,3.62 9.75,5.44 17.04,5.44 6.73,0 11.84,-1.32 15.33,-3.94 3.48,-2.62 5.22,-6.48 5.22,-11.57 0,-4.41 -1.15,-7.7 -3.44,-9.83 -2.27,-2.09 -6.88,-4.05 -13.79,-5.93l-14.13 -3.84c-7.12,-1.92 -12.21,-4.58 -15.27,-7.99 -3.02,-3.43 -4.55,-8.16 -4.55,-14.2 0,-8.8 2.63,-15.77 7.89,-20.93 5.28,-5.13 12.38,-7.72 21.34,-7.72 9.09,0 16.35,2.58 21.74,7.76 5.39,5.18 8.29,12.3 8.64,21.4l0 0 -10.03 0z"/>
   <polygon id="8" class="fil1" points="1092.3,170.18 1092.3,89.36 1092.3,89.36 1064.9,89.36 1064.9,89.36 1064.9,83.86 1064.9,78.36 1064.9,78.36 1130.63,78.36 1130.63,78.36 1130.63,83.86 1130.63,89.36 1130.63,89.36 1103.23,89.36 1103.23,89.36 1103.23,170.18 1103.23,170.18 1097.8,170.18 "/>
   <path id="9" class="fil1" d="M1142.89 170.18l30.55 -91.82 6.24 0 6.28 0 29.07 91.82 0 0 -5.88 0 -5.88 0 0 0 -8.25 -26.6 0 0 -32.31 0 0 0 -8.51 26.6 0 0 -5.62 0 -5.68 0zm36.3 -78.33l-13.02 40.73 0 0 25.47 0 0 0 -12.47 -40.73 0.02 0z"/>
   <rect class="fil0" x="296.6" y="48.63" width="5.01" height="150.14"/>
  </g>
 </g>
</svg>
