<?xml version="1.0" encoding="UTF-8"?>
<!DOCTYPE svg PUBLIC "-//W3C//DTD SVG 1.1//EN" "http://www.w3.org/Graphics/SVG/1.1/DTD/svg11.dtd">
<!-- Creator: CorelDRAW 2018 (64 Bit) -->
<svg xmlns="http://www.w3.org/2000/svg" xml:space="preserve" width="37.7102mm" height="7.4101mm" version="1.1" style="shape-rendering:geometricPrecision; text-rendering:geometricPrecision; image-rendering:optimizeQuality; fill-rule:evenodd; clip-rule:evenodd"
viewBox="0 0 1263.79 248.34"
 xmlns:xlink="http://www.w3.org/1999/xlink">
 <defs>
  <style type="text/css">
   <![CDATA[
    .fil0 {fill:#EAE6DA}
    .fil1 {fill:#EAE6DA;fill-rule:nonzero}
   ]]>
  </style>
 </defs>
 <g id="Camada_x0020_1">
  <metadata id="CorelCorpID_0Corel-Layer"/>
  <g id="_1968333551936">
   <g>
    <path class="fil0" d="M128.58 181.63l-12.2 55.66 -47.34 9.98c-28.1,5.92 -45.8,-13.33 -39.34,-42.8l6.61 -30.14 53.09 -11.19 -1.75 7.97c-2.42,11.04 4.22,18.26 14.75,16.04l26.18 -5.52z"/>
    <path class="fil0" d="M123.84 9.98l47.33 -9.98 -12.2 55.66 -26.19 5.52c-10.53,2.22 -21.13,13.07 -23.55,24.11l-1.75 7.97 -53.09 11.19 6.61 -30.14c6.46,-29.46 34.73,-58.41 62.83,-64.33z"/>
    <polygon class="fil0" points="12.21,119.53 149.88,90.81 137.63,146.18 -0,174.67 "/>
    <path class="fil0" d="M173.88 13.93l25.17 -5.31c18.48,-3.89 30.13,8.77 25.88,28.15l-7.49 34.15 -34.92 7.36 4.29 -19.56c1.6,-7.26 -2.77,-12.01 -9.7,-10.55l-11.25 2.37 8.03 -36.61z"/>
    <path class="fil0" d="M199.06 143.25l-7.49 34.15c-4.25,19.37 -22.85,38.42 -41.33,42.31l-25.17 5.3 8.03 -36.61 11.26 -2.37c6.92,-1.46 13.89,-8.6 15.49,-15.86l4.29 -19.56 34.92 -7.36z"/>
   </g>
   <g>
    <polygon class="fil1" points="423.19,158.16 392.22,158.16 392.22,172.44 420.95,172.44 420.95,187.36 392.22,187.36 392.22,220.17 374.68,220.17 374.68,143.24 423.19,143.24 "/>
    <path id="1" class="fil1" d="M480.74 179.96l-1.44 0c-0.7,-0.28 -1.82,-0.5 -3.38,-0.64 -1.54,-0.14 -2.83,-0.21 -3.85,-0.21 -2.33,0 -4.38,0.18 -6.17,0.51 -1.79,0.35 -3.72,0.94 -5.77,1.76l0 38.78 -16.42 0 0 -57.99 16.42 0 0 8.52c3.61,-3.51 6.73,-5.84 9.41,-7 2.66,-1.15 5.11,-1.73 7.36,-1.73 0.57,0 1.23,0.02 1.94,0.05 0.73,0.04 1.37,0.09 1.91,0.16l0 17.78z"/>
    <path id="2" class="fil1" d="M551.7 191.19c0,9.54 -2.46,17.05 -7.36,22.54 -4.91,5.49 -11.8,8.24 -20.67,8.24 -8.88,0 -15.77,-2.75 -20.68,-8.24 -4.9,-5.49 -7.35,-13 -7.35,-22.54 0,-9.59 2.47,-17.13 7.4,-22.61 4.95,-5.47 11.82,-8.2 20.63,-8.2 8.94,0 15.84,2.75 20.71,8.25 4.88,5.52 7.32,13.03 7.32,22.56zm-20.18 14.06c1.08,-1.48 1.87,-3.25 2.41,-5.33 0.53,-2.08 0.79,-4.96 0.79,-8.62 0,-3.39 -0.28,-6.24 -0.82,-8.54 -0.55,-2.3 -1.3,-4.13 -2.29,-5.5 -0.96,-1.41 -2.14,-2.4 -3.51,-2.98 -1.37,-0.58 -2.85,-0.88 -4.43,-0.88 -1.59,0 -2.99,0.25 -4.23,0.72 -1.23,0.48 -2.41,1.43 -3.53,2.88 -1.02,1.34 -1.82,3.17 -2.41,5.5 -0.59,2.35 -0.88,5.27 -0.88,8.8 0,3.16 0.26,5.89 0.78,8.22 0.51,2.31 1.28,4.16 2.29,5.57 0.98,1.34 2.13,2.31 3.5,2.93 1.35,0.62 2.89,0.94 4.63,0.94 1.49,0 2.91,-0.28 4.28,-0.85 1.35,-0.56 2.5,-1.51 3.44,-2.86z"/>
    <path id="3" class="fil1" d="M624.01 220.17l-16.42 0 0 -28.75c0,-2.35 -0.11,-4.68 -0.31,-7 -0.22,-2.33 -0.59,-4.04 -1.1,-5.13 -0.61,-1.27 -1.49,-2.21 -2.66,-2.79 -1.17,-0.58 -2.8,-0.88 -4.89,-0.88 -1.49,0 -3,0.28 -4.54,0.83 -1.52,0.55 -3.19,1.43 -4.98,2.63l0 41.09 -16.42 0 0 -57.99 16.42 0 0 6.42c2.91,-2.59 5.71,-4.57 8.38,-5.94 2.69,-1.38 5.66,-2.06 8.92,-2.06 5.52,0 9.83,1.82 12.94,5.47 3.09,3.65 4.65,9.1 4.65,16.37l0 37.74z"/>
    <path id="4" class="fil1" d="M681.18 219.68c-1.76,0.53 -3.64,0.94 -5.61,1.22 -1.98,0.3 -4.4,0.44 -7.26,0.44 -6.39,0 -11.15,-1.46 -14.26,-4.39 -3.13,-2.93 -4.68,-7.94 -4.68,-15.04l0 -27.13 -6.72 0 0 -12.59 6.72 0 0 -16.62 16.42 0 0 16.62 15.39 0 0 12.59 -15.39 0 0 20.6c0,2.05 0.02,3.83 0.05,5.35 0.03,1.52 0.28,2.88 0.73,4.09 0.42,1.2 1.18,2.17 2.26,2.88 1.09,0.7 2.66,1.06 4.73,1.06 0.86,0 1.98,-0.21 3.36,-0.64 1.39,-0.42 2.36,-0.81 2.91,-1.16l1.37 0 0 12.74z"/>
    <polygon id="5" class="fil1" points="732.31,193.4 697.52,193.4 697.52,178.47 732.31,178.47 "/>
    <polygon id="6" class="fil1" points="804.29,220.17 755.23,220.17 755.23,143.24 804.29,143.24 804.29,158.16 772.76,158.16 772.76,171.38 802.06,171.38 802.06,186.3 772.76,186.3 772.76,205.25 804.29,205.25 "/>
    <path id="7" class="fil1" d="M878.62 220.17l-16.42 0 0 -28.75c0,-2.35 -0.11,-4.68 -0.31,-7 -0.21,-2.33 -0.59,-4.04 -1.1,-5.13 -0.6,-1.27 -1.49,-2.21 -2.66,-2.79 -1.17,-0.58 -2.8,-0.88 -4.88,-0.88 -1.49,0 -3,0.28 -4.54,0.83 -1.52,0.55 -3.19,1.43 -4.98,2.63l0 41.09 -16.41 0 0 -57.99 16.41 0 0 6.42c2.91,-2.59 5.71,-4.57 8.38,-5.94 2.69,-1.38 5.66,-2.06 8.92,-2.06 5.52,0 9.83,1.82 12.94,5.47 3.09,3.65 4.65,9.1 4.65,16.37l0 37.74z"/>
    <path id="8" class="fil1" d="M952.78 220.17l-16.41 0 0 -6.05c-2.83,2.63 -5.48,4.55 -7.93,5.78 -2.47,1.23 -5.32,1.85 -8.54,1.85 -6.24,0 -11.23,-2.72 -14.96,-8.15 -3.75,-5.45 -5.61,-12.77 -5.61,-21.99 0,-4.92 0.64,-9.28 1.9,-13.09 1.26,-3.81 2.98,-7.07 5.17,-9.79 2.07,-2.58 4.57,-4.59 7.53,-6.02 2.94,-1.43 5.89,-2.13 8.85,-2.13 3.06,0 5.58,0.37 7.54,1.11 1.96,0.74 3.98,1.68 6.05,2.82l0 -24.78 16.41 0 0 80.43zm-16.41 -15.96l0 -28.52c-1.15,-0.55 -2.37,-0.95 -3.64,-1.18 -1.27,-0.25 -2.44,-0.37 -3.5,-0.37 -4.31,0 -7.54,1.53 -9.69,4.58 -2.16,3.05 -3.23,7.29 -3.23,12.7 0,5.69 0.87,9.84 2.6,12.4 1.73,2.58 4.49,3.86 8.31,3.86 1.49,0 3.06,-0.32 4.73,-0.95 1.68,-0.64 3.14,-1.48 4.42,-2.52z"/>
    <path id="9" class="fil1" d="M1077.64 197.57c0,3.37 -0.53,6.53 -1.6,9.47 -1.06,2.95 -2.62,5.43 -4.73,7.46 -2.22,2.17 -4.88,3.86 -8.01,5.04 -3.14,1.18 -7.01,1.78 -11.61,1.78 -3.13,0 -6.08,-0.12 -8.83,-0.39 -2.76,-0.25 -5.19,-0.62 -7.29,-1.11l0 -15.54 1.64 0c1.46,0.62 2.97,1.2 4.54,1.73 1.59,0.55 3.59,0.81 6.05,0.81 3.19,0 5.63,-0.48 7.34,-1.44 1.71,-0.97 2.94,-2.31 3.65,-4.04 0.7,-1.68 1.09,-3.53 1.18,-5.56 0.09,-2.01 0.14,-4.59 0.14,-7.72l0 -30.65 -15.49 0 0 -14.18 33.02 0 0 54.34z"/>
    <path id="10" class="fil1" d="M1139.46 179.96l-1.44 0c-0.7,-0.28 -1.82,-0.5 -3.38,-0.64 -1.54,-0.14 -2.83,-0.21 -3.85,-0.21 -2.33,0 -4.39,0.18 -6.17,0.51 -1.79,0.35 -3.72,0.94 -5.77,1.76l0 38.78 -16.42 0 0 -57.99 16.42 0 0 8.52c3.61,-3.51 6.73,-5.84 9.4,-7 2.66,-1.15 5.12,-1.73 7.36,-1.73 0.58,0 1.23,0.02 1.94,0.05 0.73,0.04 1.37,0.09 1.91,0.16l0 17.78z"/>
    <path class="fil1" d="M432.46 77.37c0,7.04 -1.34,13.41 -4.05,19.12 -2.7,5.73 -6.3,10.16 -10.78,13.3 -3.11,2.18 -6.58,3.76 -10.41,4.74 -3.83,0.98 -8.88,1.45 -15.13,1.45l-17.21 0 0 -77.36 17.02 0c6.66,0 11.95,0.55 15.87,1.63 3.92,1.1 7.24,2.59 9.96,4.5 4.64,3.28 8.25,7.66 10.85,13.14 2.6,5.46 3.89,11.97 3.89,19.47zm-9.47 -0.14c0,-6.05 -0.92,-11.14 -2.78,-15.29 -1.86,-4.13 -4.64,-7.39 -8.33,-9.77 -2.69,-1.74 -5.53,-2.93 -8.55,-3.6 -3.02,-0.67 -6.64,-1.01 -10.85,-1.01l-8.51 0 0 59.48 8.51 0c4.36,0 8.17,-0.36 11.41,-1.08 3.25,-0.73 6.24,-2.07 8.94,-4.04 3.39,-2.45 5.92,-5.68 7.63,-9.69 1.69,-4 2.53,-9.01 2.53,-15z"/>
    <path id="1" class="fil1" d="M506.17 87.99l-37.71 0c0,3.55 0.47,6.65 1.42,9.29 0.94,2.64 2.24,4.81 3.89,6.49 1.58,1.65 3.47,2.89 5.64,3.73 2.19,0.83 4.6,1.24 7.22,1.24 3.47,0 6.97,-0.78 10.51,-2.36 3.52,-1.58 6.04,-3.14 7.54,-4.67l0.45 0 0 10.66c-2.89,1.38 -5.86,2.53 -8.88,3.48 -3.02,0.94 -6.19,1.4 -9.52,1.4 -8.48,0 -15.1,-2.61 -19.86,-7.8 -4.77,-5.2 -7.15,-12.59 -7.15,-22.17 0,-9.47 2.29,-16.99 6.85,-22.54 4.56,-5.57 10.57,-8.35 18.01,-8.35 6.91,0 12.23,2.29 15.96,6.85 3.74,4.57 5.61,11.05 5.61,19.45l0 5.3zm-8.34 -7.45c-0.03,-5.11 -1.17,-9.06 -3.43,-11.86 -2.24,-2.8 -5.66,-4.2 -10.24,-4.2 -4.63,0 -8.3,1.54 -11.04,4.61 -2.74,3.09 -4.29,6.9 -4.66,11.45l29.36 0z"/>
    <path id="2" class="fil1" d="M572.68 99.14c0,5.29 -1.92,9.63 -5.78,13.02 -3.86,3.39 -9.13,5.09 -15.82,5.09 -3.78,0 -7.25,-0.51 -10.41,-1.52 -3.16,-1.03 -5.8,-2.14 -7.94,-3.37l0 -10.96 0.45 0c2.7,2.34 5.72,4.2 9.04,5.59 3.31,1.38 6.49,2.07 9.52,2.07 3.77,0 6.72,-0.69 8.85,-2.09 2.13,-1.38 3.19,-3.58 3.19,-6.58 0,-2.29 -0.58,-4.01 -1.74,-5.18 -1.16,-1.19 -3.38,-2.18 -6.66,-3.01 -1.22,-0.32 -2.81,-0.67 -4.77,-1.1 -1.97,-0.41 -3.75,-0.85 -5.38,-1.35 -4.47,-1.35 -7.65,-3.32 -9.5,-5.94 -1.88,-2.61 -2.82,-5.82 -2.82,-9.61 0,-2.4 0.44,-4.65 1.31,-6.76 0.86,-2.11 2.19,-3.99 3.97,-5.66 1.7,-1.62 3.88,-2.91 6.54,-3.87 2.64,-0.94 5.6,-1.42 8.86,-1.42 3.07,0 6.16,0.43 9.3,1.28 3.13,0.83 5.73,1.86 7.82,3.08l0 10.43 -0.45 0c-2.2,-1.84 -4.86,-3.4 -8.01,-4.68 -3.14,-1.28 -6.22,-1.92 -9.24,-1.92 -3.13,0 -5.78,0.69 -7.94,2.06 -2.18,1.38 -3.25,3.43 -3.25,6.16 0,2.38 0.66,4.18 1.97,5.39 1.27,1.21 3.34,2.2 6.21,2.96 1.58,0.41 3.34,0.81 5.32,1.24 1.95,0.41 3.59,0.8 4.91,1.14 3.98,1.05 7.05,2.82 9.22,5.34 2.15,2.57 3.23,5.96 3.23,10.18z"/>
    <path id="3" class="fil1" d="M644.76 87.99l-37.7 0c0,3.55 0.47,6.65 1.42,9.29 0.94,2.64 2.24,4.81 3.89,6.49 1.58,1.65 3.47,2.89 5.64,3.73 2.19,0.83 4.6,1.24 7.22,1.24 3.47,0 6.97,-0.78 10.51,-2.36 3.52,-1.58 6.04,-3.14 7.54,-4.67l0.45 0 0 10.66c-2.89,1.38 -5.86,2.53 -8.88,3.48 -3.02,0.94 -6.19,1.4 -9.52,1.4 -8.48,0 -15.1,-2.61 -19.86,-7.8 -4.77,-5.2 -7.15,-12.59 -7.15,-22.17 0,-9.47 2.29,-16.99 6.85,-22.54 4.56,-5.57 10.57,-8.35 18.01,-8.35 6.91,0 12.22,2.29 15.96,6.85 3.74,4.57 5.61,11.05 5.61,19.45l0 5.3zm-8.34 -7.45c-0.03,-5.11 -1.17,-9.06 -3.43,-11.86 -2.24,-2.8 -5.66,-4.2 -10.24,-4.2 -4.63,0 -8.3,1.54 -11.04,4.61 -2.74,3.09 -4.28,6.9 -4.66,11.45l29.36 0z"/>
    <path id="4" class="fil1" d="M717.56 115.97l-8.63 0 0 -33.04c0,-2.66 -0.14,-5.16 -0.41,-7.5 -0.28,-2.34 -0.78,-4.17 -1.52,-5.48 -0.76,-1.45 -1.87,-2.54 -3.31,-3.24 -1.44,-0.71 -3.3,-1.07 -5.6,-1.07 -2.35,0 -4.82,0.66 -7.38,1.97 -2.58,1.31 -5.03,3 -7.39,5.03l0 43.33 -8.63 0 0 -57.99 8.63 0 0 6.45c2.69,-2.53 5.47,-4.5 8.34,-5.92 2.88,-1.42 5.83,-2.13 8.87,-2.13 5.53,0 9.76,1.88 12.66,5.66 2.91,3.78 4.36,9.2 4.36,16.3l0 37.63z"/>
    <polygon id="5" class="fil1" points="794.33,57.98 773.63,115.97 764.98,115.97 744.43,57.98 753.73,57.98 769.61,104.13 785.33,57.98 "/>
    <path id="6" class="fil1" d="M865.28 86.99c0,9.45 -2.14,16.9 -6.41,22.38 -4.27,5.46 -9.99,8.19 -17.15,8.19 -7.24,0 -12.98,-2.73 -17.25,-8.19 -4.25,-5.48 -6.38,-12.93 -6.38,-22.38 0,-9.43 2.13,-16.9 6.38,-22.38 4.27,-5.48 10.01,-8.23 17.25,-8.23 7.16,0 12.88,2.75 17.15,8.23 4.27,5.48 6.41,12.95 6.41,22.38zm-8.91 0c0,-7.46 -1.3,-13.02 -3.88,-16.65 -2.6,-3.64 -6.18,-5.45 -10.77,-5.45 -4.66,0 -8.29,1.81 -10.85,5.45 -2.58,3.63 -3.86,9.19 -3.86,16.65 0,7.24 1.3,12.72 3.88,16.46 2.59,3.74 6.21,5.6 10.83,5.6 4.56,0 8.14,-1.84 10.74,-5.55 2.61,-3.71 3.91,-9.2 3.91,-16.51z"/>
    <polygon id="7" class="fil1" points="904.15,115.97 895.52,115.97 895.52,35.11 904.15,35.11 "/>
    <polygon id="8" class="fil1" points="982.45,57.98 961.75,115.97 953.11,115.97 932.55,57.98 941.85,57.98 957.74,104.13 973.45,57.98 "/>
    <path id="9" class="fil1" d="M1052.66 87.99l-37.71 0c0,3.55 0.47,6.65 1.42,9.29 0.94,2.64 2.24,4.81 3.89,6.49 1.58,1.65 3.47,2.89 5.64,3.73 2.19,0.83 4.59,1.24 7.22,1.24 3.47,0 6.97,-0.78 10.51,-2.36 3.52,-1.58 6.04,-3.14 7.54,-4.67l0.45 0 0 10.66c-2.89,1.38 -5.86,2.53 -8.88,3.48 -3.02,0.94 -6.19,1.4 -9.52,1.4 -8.47,0 -15.1,-2.61 -19.85,-7.8 -4.77,-5.2 -7.15,-12.59 -7.15,-22.17 0,-9.47 2.28,-16.99 6.85,-22.54 4.56,-5.57 10.57,-8.35 18.01,-8.35 6.91,0 12.23,2.29 15.96,6.85 3.73,4.57 5.61,11.05 5.61,19.45l0 5.3zm-8.34 -7.45c-0.03,-5.11 -1.17,-9.06 -3.43,-11.86 -2.24,-2.8 -5.66,-4.2 -10.24,-4.2 -4.63,0 -8.3,1.54 -11.04,4.61 -2.73,3.09 -4.28,6.9 -4.66,11.45l29.36 0z"/>
    <path id="10" class="fil1" d="M1124.14 115.97l-8.63 0 0 -6.08c-2.49,2.41 -5.06,4.31 -7.75,5.66 -2.69,1.35 -5.61,2.02 -8.77,2.02 -6.11,0 -10.97,-2.66 -14.57,-8 -3.59,-5.32 -5.39,-12.71 -5.39,-22.15 0,-4.91 0.63,-9.29 1.86,-13.12 1.23,-3.85 2.91,-7.11 5.02,-9.83 2.08,-2.62 4.52,-4.63 7.29,-6.01 2.77,-1.38 5.63,-2.07 8.6,-2.07 2.69,0 5.08,0.32 7.16,0.96 2.08,0.64 4.27,1.63 6.57,2.98l0 -25.22 8.63 0 0 80.87zm-8.63 -14.24l0 -33.2c-2.33,-1.17 -4.41,-1.99 -6.24,-2.43 -1.84,-0.44 -3.84,-0.67 -6.02,-0.67 -4.83,0 -8.6,1.9 -11.28,5.69 -2.69,3.8 -4.04,9.19 -4.04,16.16 0,6.88 1.05,12.09 3.13,15.68 2.08,3.57 5.41,5.36 9.99,5.36 2.46,0 4.94,-0.62 7.44,-1.84 2.5,-1.22 4.85,-2.8 7.02,-4.74z"/>
    <path id="11" class="fil1" d="M1201.56 86.99c0,9.45 -2.14,16.9 -6.41,22.38 -4.27,5.46 -9.99,8.19 -17.15,8.19 -7.24,0 -12.97,-2.73 -17.24,-8.19 -4.25,-5.48 -6.38,-12.93 -6.38,-22.38 0,-9.43 2.12,-16.9 6.38,-22.38 4.27,-5.48 10,-8.23 17.24,-8.23 7.16,0 12.88,2.75 17.15,8.23 4.27,5.48 6.41,12.95 6.41,22.38zm-8.91 0c0,-7.46 -1.3,-13.02 -3.88,-16.65 -2.6,-3.64 -6.18,-5.45 -10.77,-5.45 -4.66,0 -8.28,1.81 -10.85,5.45 -2.58,3.63 -3.86,9.19 -3.86,16.65 0,7.24 1.3,12.72 3.88,16.46 2.59,3.74 6.2,5.6 10.83,5.6 4.56,0 8.15,-1.84 10.74,-5.55 2.61,-3.71 3.91,-9.2 3.91,-16.51z"/>
    <path id="12" class="fil1" d="M1263.79 68.62l-0.45 0c-1.3,-0.34 -2.53,-0.58 -3.75,-0.73 -1.21,-0.16 -2.63,-0.23 -4.29,-0.23 -2.66,0 -5.24,0.68 -7.71,2 -2.48,1.33 -4.86,3.05 -7.16,5.16l0 41.14 -8.63 0 0 -57.99 8.63 0 0 8.57c3.42,-3.12 6.44,-5.32 9.07,-6.62 2.61,-1.29 5.28,-1.95 8,-1.95 1.5,0 2.58,0.04 3.25,0.12 0.67,0.09 1.69,0.25 3.03,0.5l0 10.02z"/>
   </g>
   <rect class="fil0" x="297.73" y="77.45" width="5.03" height="100.38"/>
  </g>
 </g>
</svg>
